<svg width="30" height="30" xmlns="http://www.w3.org/2000/svg" viewBox="0 0 60 60">
    <path fill="#ff965f" d="M53.2162 21.3962A23.4302 23.4302 0 0 1 36.811 46.8038a2.023 2.023 0 0 0-1.2337 1.0223L30 59l-5.5788-11.1768a2.0154 2.0154 0 0 0-1.2295-1.0186 23.4106 23.4106 0 1 1 30.0245-25.4084z"/>
    <path d="M54.21 21.27A24.4065 24.4065 0 1 0 22.9 47.76a1.0482 1.0482 0 0 1 .63.51l5.58 11.18a.9951.9951 0 0 0 1.78 0l5.58-11.18a1.0482 1.0482 0 0 1 .63-.51 24.4343 24.4343 0 0 0 17.11-26.49zM36.52 45.85a3.051 3.051 0 0 0-1.84 1.53L30 56.76l-4.68-9.38a3.0238 3.0238 0 0 0-1.84-1.53 22.4167 22.4167 0 0 1-8.42-38.14A22.1305 22.1305 0 0 1 29.97 2a24.9229 24.9229 0 0 1 2.58.14 22.4139 22.4139 0 0 1 3.97 43.71zM30 6.26a17.36 17.36 0 1 0 17.36 17.36A17.3762 17.3762 0 0 0 30 6.26zm0 32.72a15.36 15.36 0 1 1 15.36-15.36A15.3768 15.3768 0 0 1 30 38.98zm2.91-15.36a5.2838 5.2838 0 0 0-3.11-9.56h-3.89a1.003 1.003 0 0 0-1 1v17.11a.9966.9966 0 0 0 1 1h3.89a5.2772 5.2772 0 0 0 3.11-9.55zm-6-7.56h2.89a3.2798 3.2798 0 0 1 .26 6.55c-.08-.01-3.15-.01-3.15-.01zm2.89 15.11h-2.89v-6.54s3.07 0 3.15-.01a3.2798 3.2798 0 0 1-.26 6.55z"/>
    <path fill="#e2e9ee" d="M46.36 23.6174A16.3596 16.3596 0 1 1 30.0002 7.2578 16.3596 16.3596 0 0 1 46.36 23.6174z"/>
    <text x="30" y="33" text-anchor="middle" font-family="sans-serif" font-weight="600" font-size="24">IV</text>
</svg>