<?xml version="1.0" standalone="no"?>
<!DOCTYPE svg PUBLIC "-//W3C//DTD SVG 20010904//EN"
 "http://www.w3.org/TR/2001/REC-SVG-20010904/DTD/svg10.dtd">
<svg version="1.0" xmlns="http://www.w3.org/2000/svg"
 width="600.000000pt" height="600.000000pt" viewBox="0 0 600.000000 600.000000"
 preserveAspectRatio="xMidYMid meet">
<metadata>
Created by potrace 1.14, written by Peter Selinger 2001-2017
</metadata>
<g transform="translate(0.000000,600.000000) scale(0.100000,-0.100000)"
fill="#000000" stroke="none">
<path d="M1512 5574 c3 -5 17 -38 31 -74 13 -36 28 -74 32 -85 5 -11 9 -24 11
-30 1 -5 29 -80 62 -165 33 -85 88 -229 122 -320 35 -91 69 -178 77 -195 13
-26 9 -25 -27 14 -52 55 -121 111 -138 111 -7 0 -11 -4 -8 -9 3 -5 8 -26 12
-46 8 -49 21 -110 24 -110 2 0 5 -19 15 -100 4 -33 9 -63 12 -68 2 -4 6 -31 9
-60 2 -28 6 -63 9 -77 8 -40 19 -120 30 -225 4 -27 8 -61 10 -75 3 -14 7 -53
10 -85 3 -33 7 -76 10 -95 2 -19 7 -75 11 -125 4 -49 8 -106 10 -125 3 -19 4
-42 4 -50 0 -8 1 -31 2 -50 8 -158 -3 -984 -16 -1156 -3 -38 30 -158 52 -188
4 -6 14 -29 21 -51 16 -47 172 -369 229 -470 22 -38 67 -114 101 -168 33 -54
61 -102 61 -107 0 -4 4 -10 8 -12 7 -3 28 -35 82 -127 39 -66 134 -206 141
-209 5 -2 9 -8 9 -14 0 -36 446 -608 475 -608 7 0 21 12 31 28 9 15 23 32 29
37 33 27 258 317 335 430 30 44 57 82 60 85 5 4 52 77 195 300 81 125 185 300
185 310 0 6 4 10 9 10 5 0 11 8 14 18 4 9 20 42 37 72 41 72 153 292 156 305
1 6 13 35 26 65 23 49 38 86 43 100 4 11 19 47 37 90 17 40 18 61 12 220 -3
96 -7 232 -8 301 -2 69 -5 130 -7 135 -7 13 -3 468 4 584 4 52 9 137 12 189 3
52 7 106 10 120 2 14 7 58 10 96 3 39 8 86 10 105 3 19 7 53 10 75 11 99 21
172 31 240 3 22 7 49 8 60 2 11 7 47 11 80 5 33 10 67 10 75 1 8 5 26 8 40 4
14 9 39 11 55 2 17 5 30 6 30 1 0 3 9 5 20 3 19 7 39 21 108 3 15 1 27 -4 27
-19 0 -112 -80 -142 -122 -28 -38 -41 -39 -21 0 10 17 50 120 136 352 25 69
50 134 54 145 5 11 14 34 21 50 7 17 23 62 37 100 24 66 35 95 69 174 8 18 13
36 10 38 -2 3 -26 -10 -52 -29 -25 -18 -57 -40 -69 -48 -119 -79 -262 -178
-275 -190 -9 -8 -27 -22 -40 -30 -50 -33 -65 -53 -157 -206 -17 -28 -55 -102
-84 -163 -30 -61 -58 -111 -62 -111 -5 0 -5 5 -2 11 6 8 57 178 68 224 1 6 6
16 10 23 5 6 6 12 2 12 -3 0 -1 10 6 21 6 12 7 20 2 18 -9 -4 -71 -39 -172
-95 -76 -43 -225 -143 -229 -156 -2 -4 -8 -8 -14 -8 -5 0 -16 -7 -24 -15 -9
-8 -11 -15 -6 -15 12 0 58 -97 66 -140 13 -77 27 -368 25 -555 0 -5 -2 -110
-4 -232 -3 -140 -1 -224 5 -228 6 -4 7 -13 2 -23 -14 -28 -14 -805 0 -813 8
-5 9 -12 1 -21 -5 -7 -10 -78 -11 -162 -2 -162 -13 -218 -74 -381 -110 -289
-257 -554 -365 -658 l-30 -27 -34 33 c-46 45 -99 112 -99 126 0 6 -3 11 -8 11
-12 0 -117 194 -178 330 -31 68 -76 184 -102 259 -45 136 -46 136 -47 286 -1
83 -5 160 -9 173 -4 13 -4 28 1 35 8 10 10 437 4 752 -1 70 -1 227 -1 580 1
155 9 438 13 460 2 11 8 38 12 60 8 49 34 106 55 123 13 11 11 15 -15 38 -31
26 -209 145 -235 157 -8 4 -28 16 -45 27 -16 11 -43 26 -60 35 -16 9 -41 22
-55 30 -13 8 -26 13 -27 11 -2 -1 6 -32 18 -67 12 -35 23 -71 25 -79 14 -62
43 -160 48 -169 4 -6 5 -11 2 -11 -3 0 -31 53 -62 118 -106 215 -212 381 -236
366 -4 -3 -8 -1 -8 5 0 9 -253 191 -310 222 -14 8 -27 16 -30 19 -8 9 -84 66
-99 75 -8 5 -12 4 -9 -1z"/>
</g>
</svg>
